<svg width="70" height="81" viewBox="0 0 70 81" fill="none" xmlns="http://www.w3.org/2000/svg">
<path d="M29.5 17.5L4 36.5L13.5 50L23.5 70L49.5 77L58 53L65 26L49.5 5L29.5 17.5Z" fill="#FBF19B"/>
<path d="M22.409 67.2879C18.4991 57.9563 13.1647 49.2452 7.27207 41.0433C6.32838 39.7298 5.32849 38.4463 4.1833 37.3011C3.47815 36.5959 5.29096 35.4687 5.71778 35.034C9.59069 31.0901 13.8884 28.0028 18.4886 24.9559C25.3185 20.4324 31.9169 15.5142 39.0705 11.502C42.2332 9.72813 45.5874 8.21362 48.5249 6.06697C48.8844 5.80421 49.296 5.54367 49.5743 5.18588C49.8842 4.78742 50.1022 5.54989 50.2772 5.84917C51.9243 8.66661 53.6468 11.4424 55.5934 14.0661C57.8231 17.0714 60.2366 19.9725 62.6322 22.8473C63.3069 23.6568 63.9249 24.6546 64.6419 25.4113C64.9535 25.7402 64.9213 25.561 64.7805 26.1241C64.2041 28.4298 63.8636 30.7921 63.2955 33.1036C61.6788 39.682 60.0227 46.2385 57.8803 52.6657C56.0235 58.236 53.8599 63.7148 52.0294 69.2876C51.0673 72.2168 50.5747 72.3298 49.8515 75.3262C49.4573 76.9591 49.6676 77.1105 48.2675 76.5835C45.817 75.6613 43.0828 75.2436 40.5258 74.7322C37.5672 74.1405 34.7036 73.5538 31.7941 72.7424C29.6622 72.1478 27.0268 71.7134 25.0721 70.6139C24.5963 70.3463 23.6459 70.007 23.3891 69.5447C22.6981 68.301 21.8739 67.1369 21.518 65.7134" stroke="black" stroke-linecap="round" stroke-linejoin="round"/>
<path d="M23.6565 69.2481C24.6326 66.6126 26.4149 64.5297 28.052 62.2786C30.5165 58.89 33.0566 55.6781 36.0809 52.7648C37.5999 51.3016 39.2574 49.9947 40.7734 48.5277C42.5397 46.8183 44.1785 44.9823 45.8817 43.2114C48.2747 40.7235 50.8476 38.417 53.2176 35.9053C54.1314 34.9369 55.0187 33.9558 55.9103 32.975C56.2203 32.634 55.9713 32.3495 55.9202 31.9157C55.8107 30.9844 55.6229 28.8579 56.6231 28.3022C57.6867 27.7114 58.4486 28.562 59.4743 28.619C60.179 28.6582 60.9296 27.1637 61.5137 26.5796C62.1257 25.9676 63.0373 25.5903 63.751 25.0551" stroke="black" stroke-linecap="round" stroke-linejoin="round"/>
<path d="M41.2981 70.4956C40.2101 69.5933 39.7245 68.6258 40.6249 67.3276C40.8787 66.9616 41.7095 65.8755 42.2782 66.3178C43.2378 67.0642 45.3478 68.0497 44.1493 69.2482" stroke="black" stroke-linecap="round" stroke-linejoin="round"/>
<path d="M44.3273 18.1055C43.8302 17.7149 42.3667 16.2445 41.6544 16.6007C40.785 17.0354 40.1618 17.7504 39.8724 18.6797C39.3966 20.2072 39.7013 20.9661 41.3079 21.5803C42.8788 22.181 43.8231 22.3437 45.3965 21.6694" stroke="black" stroke-linecap="round" stroke-linejoin="round"/>
<path d="M39.3378 32.5393C38.8513 31.7347 37.0636 28.933 35.7738 30.2228C34.8364 31.1602 35.2092 33.2371 36.3084 33.7867" stroke="black" stroke-linecap="round" stroke-linejoin="round"/>
<path d="M48.248 46.4388C46.0911 45.5971 43.9197 46.8458 43.0406 48.9336C42.4285 50.3874 44.5633 51.8495 45.5354 52.4975C46.3018 53.0085 46.8822 52.9333 47.7134 53.2103" stroke="black" stroke-linecap="round" stroke-linejoin="round"/>
<path d="M25.6165 52.1412C25.3342 50.5224 25.1789 49.1118 26.4085 47.8644C26.9953 47.2691 27.8701 46.5818 28.735 46.4487C29.5796 46.3188 30.1748 47.0658 30.6259 47.6565C31.5663 48.888 32.171 49.9412 31.6753 51.4284" stroke="black" stroke-linecap="round" stroke-linejoin="round"/>
<path d="M11.3609 39.8455C11.2272 38.8261 10.8768 37.4191 11.5391 36.4993C11.7811 36.1632 13.1017 36.8836 13.3904 37.0834C14.1512 37.6101 15.0381 39.2137 13.6775 39.6673" stroke="black" stroke-linecap="round" stroke-linejoin="round"/>
</svg>
