<svg xmlns="http://www.w3.org/2000/svg" viewBox="0 0 1377.88 1573.92"><defs><style>.a{fill:#ececec;}.b{fill:#fbf19b;}.c{fill:#e1f2ff;}.d{fill:#ece5cc;}.e{fill:#a6a08a;}.e,.f,.i,.j{stroke:#002749;stroke-miterlimit:10;}.f,.g{fill:#fff;}.h{fill:#002749;}.i{fill:none;stroke-width:9.22px;}.j{fill:#ffab7f;}</style></defs><path class="a" d="M1183.09,940.22c16.79-9.05,105.19-38.34,151.66-11.92s33.88,158.16,21.74,166-2.58-35.74-81.08-46.19-142.77-14-129.06-21.44S1141.62,962.58,1183.09,940.22Z" transform="translate(-47.73 -54.17)"/><path class="a" d="M1208.37,1243.38c-41.7,42.1-275.28,242.1-429.93,298S559.86,1418.53,589,1386.56s34.7,37.26,269.91-97.4,424-250.87,390-216.42S1311.38,1139.41,1208.37,1243.38Z" transform="translate(-47.73 -54.17)"/><path class="b" d="M512.37,1203.65s-56.53,141.09,104.36,151.12,501.09-276.29,538.34-340.47S1116,955.18,1112.68,948s-289.09,286.47-372,291.72S459.07,1319,512.37,1203.65Z" transform="translate(-47.73 -54.17)"/><path class="b" d="M1305,1275.45s30.42,50.16,58,35.19,70.35-93.94,58.15-146.6-31.72-59.14-49.6-69.73S1348.5,1264.44,1305,1275.45Z" transform="translate(-47.73 -54.17)"/><path class="b" d="M437.37,1420.73s-58.65,1.42-59.37,32.74,46.45,107.78,98.2,123.41,67.09,1.94,85.17-8.31S425.25,1464,437.37,1420.73Z" transform="translate(-47.73 -54.17)"/><path class="c" d="M485.43,138.53c-578.67,201.86-513,1311.08,367,981.05C1479.16,884.55,1135.07-88.07,485.43,138.53Z" transform="translate(-47.73 -54.17)"/><path class="d" d="M361.26,344.87c29-70.46-.58-180.87,177.94-200.19s236.38-40,327.25,127,87.91,202.66,103.21,189.45,130.57-75.36,142.05-39.68S1028.78,609,1011.48,606.77s-1.14,74.75,0,137.63,22.12,250.92-145,350.42-303,84.8-327.25,0,32.81-158,133.31-204.36-27.76.24-55.78,0-130.22,31.11-139-16.82S408.91,673,411.27,648,308.9,472.22,361.26,344.87Z" transform="translate(-47.73 -54.17)"/><path class="e" d="M611.76,858s-55.3,92.15-64.51,110.58,33.49,64.63,82.94,64.51,114.24.16,163.09-59.82,58.07-133.7,39.64-161.34-67.2-68.4-84.4-67.46C694.69,747.38,611.76,821.1,611.76,858Z" transform="translate(-47.73 -54.17)"/><path class="f" d="M621,830.32s-3.91,24.23,16.47,21.33,28.21-46,10.48-42.87S621,830.32,621,830.32Z" transform="translate(-47.73 -54.17)"/><path class="f" d="M703.91,765.81S700,790,720.38,787.14s28.2-46,10.47-42.87S703.91,765.81,703.91,765.81Z" transform="translate(-47.73 -54.17)"/><path class="g" d="M703.91,452.5c58.14-82.94,163.4,42.27,82.93,101.36S646.19,534.83,703.91,452.5Z" transform="translate(-47.73 -54.17)"/><path class="a" d="M722.34,480.14C716.51,497.63,750.1,537,763.87,504S731.55,452.5,722.34,480.14Z" transform="translate(-47.73 -54.17)"/><path class="g" d="M329.06,580.7c12.53,65.94,148.8,39.58,137.42-39.7S304.38,450.87,329.06,580.7Z" transform="translate(-47.73 -54.17)"/><path class="h" d="M370.55,482.7c-15.84-1.91-30.95,7.39-40.25,19.59-9.75,12.79-13.7,29.14-15.9,44.78-2.35,16.76-2.57,34.35,5.06,49.89a54.52,54.52,0,0,0,13,16.76,68.78,68.78,0,0,0,19.07,11.7c14.53,6.06,30.63,6.64,46,3.68a117.55,117.55,0,0,0,24.27-7.77,137.39,137.39,0,0,0,20.78-11.14c12.29-8.06,23.56-18.37,31.16-31.06a59.49,59.49,0,0,0,7.65-19.59,51.57,51.57,0,0,0-.7-22.52c-3.83-14.57-13.89-26.73-25.92-35.43-13.31-9.62-29.48-14.7-45.37-18.16-3.86-.85-7.74-1.6-11.63-2.32a4.9,4.9,0,0,0-3.52.47,4.6,4.6,0,0,0-2.1,2.73c-.51,2.24.67,5.16,3.19,5.62,7.36,1.35,14.71,2.85,21.93,4.82,3.58,1,7.13,2.06,10.62,3.31,1.76.63,3.51,1.29,5.24,2l.52.21c-1.16-.46-.47-.2-.19-.08l1.16.51q1.33.59,2.67,1.23a85.27,85.27,0,0,1,9.45,5.23q2.06,1.31,4,2.75l1,.73c.23.17.62.54-.35-.27.15.13.32.25.48.38.67.53,1.32,1.07,2,1.62a69.7,69.7,0,0,1,6.79,6.63c.54.61,1.06,1.22,1.58,1.85l.68.84.38.48c-.91-1.08-.31-.4-.13-.16q1.45,1.92,2.75,4,1.43,2.22,2.62,4.57.6,1.17,1.14,2.37l.24.54c.42,1-.37-.9-.05-.1.15.37.3.74.44,1.11a47,47,0,0,1,2.69,10.38l-.17-1.22a46.53,46.53,0,0,1,0,12.42l.16-1.22a50.35,50.35,0,0,1-2.46,10c-.28.8-.59,1.59-.91,2.38-.05.14-.11.28-.17.43.55-1.37.22-.54.09-.24s-.37.85-.57,1.27q-1.11,2.38-2.42,4.67c-.89,1.55-1.83,3.05-2.83,4.52-.45.66-.91,1.31-1.37,2l-.86,1.15c-.09.12-.59.77-.08.11s-.14.17-.24.3a89.51,89.51,0,0,1-7.32,8.14,106.38,106.38,0,0,1-8.11,7.18l-1.06.84c-.48.37.95-.73.24-.19l-.59.45c-.72.54-1.44,1.08-2.18,1.6q-2.28,1.65-4.64,3.18c-3.18,2.06-6.45,4-9.79,5.73q-2.82,1.51-5.7,2.89c-.9.43-1.8.85-2.71,1.26l-1.43.64-.65.28c-.27.12-1.53.64-.21.1a111.6,111.6,0,0,1-27.15,7.62L391,621a79.73,79.73,0,0,1-21,.12l1.21.16a69.45,69.45,0,0,1-14.05-3.43c-1.12-.4-2.22-.84-3.32-1.29,1.41.58.31.13,0,0l-.76-.34q-.87-.39-1.71-.81a64.25,64.25,0,0,1-6.28-3.52c-1-.64-2-1.3-2.91-2l-1.31-1c1.19.9.26.2,0,0l-.72-.6a54.17,54.17,0,0,1-5.18-4.87c-.82-.88-1.61-1.78-2.37-2.72l-.51-.63c-.27-.34.35.48.36.46a3.28,3.28,0,0,0-.28-.37c-.38-.5-.74-1-1.1-1.51a50.18,50.18,0,0,1-3.66-6.2c-.34-.7-.67-1.4-1-2.11-.08-.17-.15-.34-.22-.51.07.17.38.91.15.34-.15-.38-.31-.76-.45-1.14-.55-1.44-1-2.9-1.46-4.38a63.91,63.91,0,0,1-1.9-9.2l.17,1.22a104.5,104.5,0,0,1,.51-27.31l-.16,1.22c.74-5.46,1.68-10.9,3-16.26.65-2.69,1.39-5.36,2.24-8,.42-1.29.87-2.56,1.34-3.83l.69-1.77c.12-.28.63-1.46.06-.15.14-.33.28-.66.43-1a66.52,66.52,0,0,1,3.68-7.18c.69-1.16,1.42-2.3,2.19-3.41.38-.55.76-1.09,1.16-1.62l.3-.4c.29-.39-.37.5-.34.44a7.21,7.21,0,0,1,.7-.87,48.47,48.47,0,0,1,5.15-5.38c.46-.42.93-.82,1.41-1.22l.67-.55.3-.23c.73-.58-.89.66-.14.1,1-.73,2-1.45,3.06-2.11s2.4-1.45,3.65-2.08c.58-.3,1.17-.58,1.77-.85l.45-.2c.71-.31-.82.34-.3.13l.91-.36a36.94,36.94,0,0,1,8.1-2.08l-1.22.16a33.09,33.09,0,0,1,8.26-.06,4.52,4.52,0,0,0,3.23-1.34,4.65,4.65,0,0,0,1.34-3.23,4.59,4.59,0,0,0-1.34-3.23,5.26,5.26,0,0,0-3.23-1.34Z" transform="translate(-47.73 -54.17)"/><path class="h" d="M737.33,438.22a28,28,0,0,0-11.63-1.52,33.68,33.68,0,0,0-12,3.47c-7.15,3.54-13.15,9.38-18,15.59a104.63,104.63,0,0,0-13.07,21.62,184.43,184.43,0,0,0-8.68,22.94,124.85,124.85,0,0,0-4.8,24.28,72.84,72.84,0,0,0,1.4,23.14,49.56,49.56,0,0,0,10.41,20.72,47.27,47.27,0,0,0,21.37,14,59.53,59.53,0,0,0,25.78,2.3,71.46,71.46,0,0,0,13.48-3A91,91,0,0,0,755.22,576a138.13,138.13,0,0,0,23.68-16.23,196.64,196.64,0,0,0,19.84-18.55,105,105,0,0,0,16-22.17,70,70,0,0,0,7.82-26,68.12,68.12,0,0,0-2.32-24.27,76.49,76.49,0,0,0-10.36-22.42,78.2,78.2,0,0,0-17.6-18.52A77,77,0,0,0,768.72,416a89.05,89.05,0,0,0-26.59-3.92,96.08,96.08,0,0,0-26.9,3.92,98.42,98.42,0,0,0-12.75,4.81,4.64,4.64,0,0,0-2.1,2.73,4.73,4.73,0,0,0,.46,3.53,4.66,4.66,0,0,0,2.74,2.1,5.26,5.26,0,0,0,3.52-.46q1.13-.51,2.25-1l-1.09.46a91.67,91.67,0,0,1,23.28-6.32l-1.22.16a89.92,89.92,0,0,1,23.58,0l-1.22-.17a81.69,81.69,0,0,1,20.72,5.59l-1.09-.46a75.33,75.33,0,0,1,10.22,5.27c1.55,1,3.07,2,4.54,3.08.3.22.6.44.89.67.7.53-.9-.71-.21-.17l.52.42c.7.56,1.39,1.14,2.07,1.72a70.81,70.81,0,0,1,7.42,7.48c.54.63,1.06,1.26,1.57,1.9l.42.53c.55.69-.69-.91-.16-.21.31.41.63.83.94,1.26q1.51,2.08,2.9,4.27a75.55,75.55,0,0,1,5.48,10.52l-.46-1.09a70,70,0,0,1,4.84,17.56l-.17-1.22a63,63,0,0,1,.06,16.57l.16-1.22a63,63,0,0,1-4.45,16l.47-1.09a82.13,82.13,0,0,1-8.74,15.4c-.41.58-.83,1.15-1.26,1.72l-.67.9c-.11.15-.47.61,0,0s-.08.1-.18.23q-1.35,1.72-2.78,3.41c-2,2.31-4,4.55-6.12,6.73-4.17,4.31-8.59,8.38-13.13,12.3q-3.59,3.09-7.3,6l-.83.65.3-.23-.52.4c-.66.51-1.33,1-2,1.51-1.24.91-2.48,1.81-3.75,2.68A103,103,0,0,1,744,571.23l1.09-.46a70,70,0,0,1-17.66,5l1.22-.16a60.28,60.28,0,0,1-15.82.06l1.22.16a50.81,50.81,0,0,1-12.82-3.41l1.09.46a44.73,44.73,0,0,1-6-3.05c-1-.61-2-1.26-2.89-1.95-.15-.11-1-.72-.28-.2s-.14-.12-.27-.22c-.45-.37-.9-.75-1.34-1.14a41.86,41.86,0,0,1-4.26-4.37l-.91-1.11c-.34-.42.65.87.34.44-.06-.08-.13-.16-.19-.25l-.48-.65q-.89-1.23-1.68-2.52a43.37,43.37,0,0,1-3-5.87l.46,1.09a51.88,51.88,0,0,1-3.52-13.25l.16,1.21a78.45,78.45,0,0,1,.26-20.65l-.17,1.22a135.92,135.92,0,0,1,7.48-28.75q1.46-3.9,3.07-7.74l-.46,1.1a116.66,116.66,0,0,1,9.66-18.55q1.53-2.34,3.19-4.58c.23-.31.46-.62.7-.92.53-.71-.71.89-.15.19l.43-.54c.57-.72,1.15-1.43,1.75-2.12a59.49,59.49,0,0,1,7.26-7.2c.32-.26,1.77-1.36.42-.36.34-.25.67-.51,1-.76.73-.53,1.49-1,2.25-1.52a35.16,35.16,0,0,1,4.86-2.55l-1.09.46a27.82,27.82,0,0,1,7-1.94l-1.22.16a24.23,24.23,0,0,1,6.31,0l-1.21-.16A26.06,26.06,0,0,1,734.9,447a4.6,4.6,0,0,0,5.62-3.19,4.69,4.69,0,0,0-3.19-5.63Z" transform="translate(-47.73 -54.17)"/><path class="h" d="M413.11,515.07a12.84,12.84,0,0,0-2.74-3.39,14.81,14.81,0,0,0-4.55-2.67,16.52,16.52,0,0,0-8.57-.5,20.45,20.45,0,0,0-7.56,3,22,22,0,0,0-6.58,6.37A20.53,20.53,0,0,0,380,528a31.65,31.65,0,0,0,1.73,12,66.48,66.48,0,0,0,5.18,11.4c1.8,3.22,3.69,6.41,5.74,9.46,4,5.93,9.3,11.52,16.59,13a25.87,25.87,0,0,0,17.92-3.22,31.47,31.47,0,0,0,12.4-13,28.57,28.57,0,0,0,2.84-9.72,29.31,29.31,0,0,0-.76-9.78,38.27,38.27,0,0,0-9.78-17.4,49.41,49.41,0,0,0-17-11.42,42.27,42.27,0,0,0-4.26-1.52A4.62,4.62,0,0,0,405,511a4.67,4.67,0,0,0,3.19,5.63,46.68,46.68,0,0,1,4.43,1.58l-1.1-.46a45.48,45.48,0,0,1,10.07,5.87l-.92-.71a41.3,41.3,0,0,1,7.4,7.37l-.71-.93a35.39,35.39,0,0,1,4.38,7.43l-.46-1.09a29.75,29.75,0,0,1,2.06,7.39l-.16-1.21a25.22,25.22,0,0,1,.06,6.61l.16-1.22a22.57,22.57,0,0,1-1.55,5.58l.46-1.09A26.17,26.17,0,0,1,429,557.3l.72-.93a28.23,28.23,0,0,1-5,5l.92-.72a26.7,26.7,0,0,1-5.76,3.4l1.1-.47a22.9,22.9,0,0,1-5.67,1.59l1.22-.17a18.47,18.47,0,0,1-4.87,0l1.21.17a17.52,17.52,0,0,1-4.31-1.16l1.1.46a18.55,18.55,0,0,1-4-2.33l.92.72a28.18,28.18,0,0,1-4.91-5l.72.93a90.36,90.36,0,0,1-5.71-8.78,85.88,85.88,0,0,1-5.32-10.2l.46,1.09a37,37,0,0,1-2.69-9.34l.17,1.22a23.85,23.85,0,0,1,0-6.26l-.17,1.21a17,17,0,0,1,1-4.08l-.46,1.09a14.41,14.41,0,0,1,1.82-3.1l-.71.92a17.45,17.45,0,0,1,3-3l-.92.72a18.68,18.68,0,0,1,4.12-2.41l-1.09.46a16.78,16.78,0,0,1,4.19-1.14l-1.22.16a13.41,13.41,0,0,1,3.35,0l-1.22-.16a10.87,10.87,0,0,1,2.63.7l-1.1-.46a9.29,9.29,0,0,1,1.91,1.1l-.93-.71a9.14,9.14,0,0,1,1.62,1.61l-.71-.92a10.32,10.32,0,0,1,.74,1.12,4.57,4.57,0,0,0,7.9-4.61Z" transform="translate(-47.73 -54.17)"/><path class="h" d="M730.18,471.91c-7.41,3.68-11.12,12.25-10.75,20.24.39,8.21,4.61,16.51,12.32,20.08a24.12,24.12,0,0,0,13.12,2.17,29.72,29.72,0,0,0,12.87-4.62A28.61,28.61,0,0,0,767,500a29,29,0,0,0,3.5-14.19,36.52,36.52,0,0,0-11.57-25.94c-1-1-2.14-1.83-3.27-2.69a4.56,4.56,0,0,0-3.52-.46,4.57,4.57,0,0,0-3.19,5.62l.46,1.09a4.45,4.45,0,0,0,1.64,1.64l.14.11-.93-.71A32.15,32.15,0,0,1,756,470.2l-.71-.92a33.7,33.7,0,0,1,4.28,7.34l-.46-1.09a32,32,0,0,1,2.18,7.94l-.17-1.22a27.93,27.93,0,0,1,0,7.25l.16-1.21a24.7,24.7,0,0,1-1.66,6.14l.46-1.09a21.79,21.79,0,0,1-2.84,4.84l.72-.92a24.53,24.53,0,0,1-4.34,4.3l.93-.71a26.27,26.27,0,0,1-5.71,3.32l1.09-.46a24.65,24.65,0,0,1-6.14,1.69l1.22-.17a21.3,21.3,0,0,1-5.64,0l1.21.17a19.14,19.14,0,0,1-4.82-1.32l1.09.46a17,17,0,0,1-3.65-2.11l.92.71a16.75,16.75,0,0,1-2.94-3l.72.92a18.58,18.58,0,0,1-2.36-4.1l.46,1.1a21.68,21.68,0,0,1-1.44-5.3l.17,1.22a22.21,22.21,0,0,1,0-5.76l-.16,1.22a19.33,19.33,0,0,1,1.29-4.78l-.46,1.09a16.65,16.65,0,0,1,2.09-3.61l-.71.92a14.54,14.54,0,0,1,2.57-2.57l-.93.71a14.71,14.71,0,0,1,2.36-1.46,4.57,4.57,0,0,0-4.61-7.9Z" transform="translate(-47.73 -54.17)"/><path class="h" d="M512.37,611.34a4.57,4.57,0,1,0-4.57-4.57,4.62,4.62,0,0,0,4.57,4.57Z" transform="translate(-47.73 -54.17)"/><path class="h" d="M507.24,608.14a230.49,230.49,0,0,0,14.23,47.67,243.55,243.55,0,0,0,11.25,23.37,229.81,229.81,0,0,0,13.17,21.08c4.61,6.56,9.51,13.22,15.81,18.27a41.28,41.28,0,0,0,11.44,6.67,31.78,31.78,0,0,0,11,2,40,40,0,0,0,21-6.23,49,49,0,0,0,16-16,57,57,0,0,0,5.24-11.55,66.15,66.15,0,0,0,2.75-12,113,113,0,0,0,.43-25.67q-.27-3-.65-6a5,5,0,0,0-1.33-3.24,4.69,4.69,0,0,0-3.24-1.34,4.63,4.63,0,0,0-3.23,1.34,4.43,4.43,0,0,0-1.34,3.24,133.7,133.7,0,0,1,1.06,23.41c-.13,2.22-.33,4.44-.62,6.65l.16-1.22A64.7,64.7,0,0,1,616,695l.46-1.1a45.8,45.8,0,0,1-5.86,10.18l.72-.92a44.93,44.93,0,0,1-8,8l.92-.71a42,42,0,0,1-9.3,5.47l1.09-.46a35.4,35.4,0,0,1-8.8,2.44l1.21-.16a30.53,30.53,0,0,1-8,0l1.22.17a29,29,0,0,1-7.21-2l1.09.46a35.61,35.61,0,0,1-7.76-4.62l.92.72a64.65,64.65,0,0,1-11.09-11.57l.72.93a204,204,0,0,1-12.4-18.16q-5.85-9.53-10.76-19.59c-1.84-3.79-3.59-7.64-5.23-11.52l.46,1.09a232.07,232.07,0,0,1-12.08-37.08q-1.27-5.42-2.27-10.89a4.58,4.58,0,0,0-8.36-1.09,5.16,5.16,0,0,0-.46,3.52Z" transform="translate(-47.73 -54.17)"/><path class="i" d="M1013.77,567a217.05,217.05,0,0,0,68.14-117.38c.8-3.86,1.45-8.07-.32-11.58-1.9-3.76-6.06-5.72-10-7.24-42.72-16.52-93.36-10.84-131.36,14.73" transform="translate(-47.73 -54.17)"/><path class="h" d="M502.82,883.48c14.61,8.37,32.51,8.35,48.22,3.25,16.48-5.35,30.49-16,43.42-27.27,14.26-12.37,28.16-25.17,42.21-37.78s28-25.34,42.2-37.83c12.06-10.62,24.49-20.78,39.18-27.7a78.5,78.5,0,0,1,21.75-6.62c.89-.13-1.08.12.42,0l1.39-.16c.78-.07,1.55-.14,2.33-.19,1.86-.12,3.71-.17,5.57-.15,1.55,0,3.09.09,4.63.2.92.07,1.84.16,2.76.26l.91.11c-.83-.1.92.14,1.07.17,13.91,2.18,25.86,7.68,37.2,16.07l.95.72c.72.54-.81-.65.4.3l2,1.65c1.41,1.17,2.78,2.37,4.13,3.61a102.53,102.53,0,0,1,7.35,7.54,83.72,83.72,0,0,1,6.26,7.91,102.5,102.5,0,0,1,5.71,9.13,88.28,88.28,0,0,1,8,19.6,112.6,112.6,0,0,1,4.13,23.84,145.24,145.24,0,0,1-5.37,48.52,191.33,191.33,0,0,1-18.93,44.8,213.2,213.2,0,0,1-26,36.07,204.63,204.63,0,0,1-32.67,29.59,191.29,191.29,0,0,1-19.19,12.13q-4.86,2.67-9.87,5c-3.43,1.63-6.3,2.87-9.55,4.16a164.51,164.51,0,0,1-22,7q-5.57,1.35-11.2,2.31c-3.84.66-6.69,1-10.64,1.42a162.37,162.37,0,0,1-45.33-1.86,145.31,145.31,0,0,1-42.54-14.9q-5-2.7-9.75-5.81c-3.08-2-6.38-4.35-9-6.43-6-4.8-11.55-10.11-14.45-17.22a27.83,27.83,0,0,1-1.85-10.65,39.1,39.1,0,0,1,2.29-11.7c2.8-8.34,7.49-15.92,12-23.42q14.22-23.7,30.09-46.33,7.67-10.94,15.69-21.59c1.49-2,.32-5.11-1.64-6.26-2.34-1.37-4.76-.34-6.25,1.64q-17,22.57-32.33,46.31-7.58,11.75-14.73,23.74c-4.76,8-9.46,16.19-12.17,25.14-2.57,8.5-3,17.83.35,26.17,3.17,7.76,8.74,14.13,15.11,19.46a141.93,141.93,0,0,0,41.87,23.8c29.88,11,63.11,12.6,94.12,5.65,30.46-6.83,58.55-22.39,81.93-42.91a219.69,219.69,0,0,0,55.41-75.28c14-31.44,20.7-67.24,12.26-101.12-7.25-29.13-27.14-54.85-54.11-68.34-13-6.51-27.62-10.16-42.22-9.28-16.3,1-31.59,7.42-45.11,16.3-14.56,9.55-27.36,21.51-40.29,33.11l-44.43,39.87c-7.14,6.4-14.26,12.83-21.42,19.21a242.66,242.66,0,0,1-19.44,16c-13.48,9.7-28.62,16.88-45.19,16.64a43.59,43.59,0,0,1-21.1-5.52,4.57,4.57,0,0,0-4.61,7.89Z" transform="translate(-47.73 -54.17)"/><path class="h" d="M614.77,828.82c-3.7,5.94-3.12,13.37,0,19.4a22.56,22.56,0,0,0,5.79,7.12,20.91,20.91,0,0,0,9.17,4.48,24.34,24.34,0,0,0,11.47-.6,29.65,29.65,0,0,0,10.11-5.54,31.06,31.06,0,0,0,10.81-19.06A47.29,47.29,0,0,0,659.21,810c-.46-1.18-1-2.35-1.47-3.51a4.59,4.59,0,0,0-2.74-2.1,4.57,4.57,0,0,0-5.62,3.19l-.16,1.22a4.6,4.6,0,0,0,.62,2.31c.15.33.29.66.44,1l-.46-1.1a50.51,50.51,0,0,1,3.54,12.63l-.16-1.22a38.75,38.75,0,0,1,.07,10.15l.17-1.22a30.94,30.94,0,0,1-2.1,7.8l.46-1.09a26,26,0,0,1-3.35,5.69l.72-.92a27.32,27.32,0,0,1-4.81,4.8l.92-.71a25.27,25.27,0,0,1-5.48,3.2l1.09-.46a21.41,21.41,0,0,1-5.33,1.47l1.21-.16a19.46,19.46,0,0,1-5,0l1.21.16a16.15,16.15,0,0,1-4-1.09l1.1.47a17.69,17.69,0,0,1-3.75-2.21l.92.72a19.88,19.88,0,0,1-3.42-3.44l.72.93A20,20,0,0,1,622,842.2l.47,1.1a17.89,17.89,0,0,1-1.21-4.42l.16,1.22a15.35,15.35,0,0,1,0-3.89l-.17,1.22a13.77,13.77,0,0,1,.92-3.32l-.46,1.09a14.92,14.92,0,0,1,.93-1.77,4.61,4.61,0,0,0-1.64-6.25,4.66,4.66,0,0,0-6.25,1.64Z" transform="translate(-47.73 -54.17)"/><path class="h" d="M701.52,789.42a14,14,0,0,0,8.49,7A20,20,0,0,0,730,791a30.4,30.4,0,0,0,6.36-11.62,80.64,80.64,0,0,0,2.53-14.06,4.52,4.52,0,0,0-1.34-3.23,4.65,4.65,0,0,0-3.23-1.34,4.59,4.59,0,0,0-3.23,1.34l-.72.92a4.6,4.6,0,0,0-.62,2.31c-.12,1-.24,2-.37,2.94l.16-1.22a50.62,50.62,0,0,1-3.13,13l.47-1.1a24.3,24.3,0,0,1-3.07,5.32l.72-.93a16.42,16.42,0,0,1-2.82,2.89l.92-.71a15.94,15.94,0,0,1-3.35,1.93l1.09-.46a17.24,17.24,0,0,1-4.18,1.13l1.22-.17a15.28,15.28,0,0,1-3.94,0l1.21.16a12.6,12.6,0,0,1-3.12-.82l1.1.46a10.49,10.49,0,0,1-2.25-1.29l.93.72a9.79,9.79,0,0,1-1.64-1.64l.71.93a9.54,9.54,0,0,1-1-1.71,4.61,4.61,0,0,0-2.73-2.1,4.73,4.73,0,0,0-3.53.46,4.67,4.67,0,0,0-2.1,2.73,5.28,5.28,0,0,0,.46,3.53Z" transform="translate(-47.73 -54.17)"/><path class="h" d="M636.53,901.94a24.59,24.59,0,0,0-10.72,10.52,32.25,32.25,0,0,0-3.57,14.8,38.33,38.33,0,0,0,3.3,15.43,30.78,30.78,0,0,0,8.84,11.79A36.94,36.94,0,0,0,651.47,962a49.39,49.39,0,0,0,19.63-.87,58.12,58.12,0,0,0,17.6-7.61,69.17,69.17,0,0,0,15-13.35c8.85-10.4,15.18-22.52,21-34.81q1.07-2.25,2.11-4.52a5,5,0,0,0,.46-3.52,4.58,4.58,0,0,0-5.63-3.19,4.51,4.51,0,0,0-2.73,2.1c-4.43,9.55-9,19.11-14.67,28-1.6,2.48-3.29,4.9-5.1,7.23l.72-.92a73.39,73.39,0,0,1-12.9,13.16l.93-.71a56.43,56.43,0,0,1-12.22,7.13l1.09-.46a52.28,52.28,0,0,1-13.2,3.64l1.21-.16a42.55,42.55,0,0,1-11.16,0l1.21.17a35.66,35.66,0,0,1-9.07-2.47l1.09.46a30.39,30.39,0,0,1-6.66-3.83l.92.72a26.58,26.58,0,0,1-4.6-4.64l.71.93a30.81,30.81,0,0,1-3.86-6.67l.46,1.09a33.22,33.22,0,0,1-2.26-8.31l.16,1.22a32,32,0,0,1,0-8.47l-.16,1.21a27.21,27.21,0,0,1,1.81-6.74l-.46,1.09a22.21,22.21,0,0,1,2.88-5l-.72.92a20.61,20.61,0,0,1,3.62-3.61l-.93.72a20.35,20.35,0,0,1,3.45-2.12,4.64,4.64,0,0,0,2.1-2.73,4.72,4.72,0,0,0-.46-3.53,4.66,4.66,0,0,0-2.74-2.1,5.13,5.13,0,0,0-3.52.46Z" transform="translate(-47.73 -54.17)"/><path class="h" d="M346.69,355.28A286.65,286.65,0,0,1,456.6,176.12a280.58,280.58,0,0,1,103.95-47.89,285.4,285.4,0,0,1,115-3.12c35.92,6.52,73.21,19.73,99,46.7a104.38,104.38,0,0,1,8.5,10c1.47,2,4,3,6.25,1.64,2-1.14,3.12-4.26,1.64-6.26-23.26-31.43-60.2-48.68-97.38-57.65a294.12,294.12,0,0,0-119.46-3.41,289.81,289.81,0,0,0-110.3,43.76A295.73,295.73,0,0,0,340.53,339.39q-1.5,6.71-2.66,13.46c-.42,2.43.65,4.93,3.19,5.63,2.21.6,5.2-.75,5.63-3.2Z" transform="translate(-47.73 -54.17)"/><path class="h" d="M783.24,300.22l26.91-23.29,27-23.38,26.91-23.28,27-23.38L918,183.6l3.34-2.89a4.59,4.59,0,0,0,0-6.46,4.68,4.68,0,0,0-6.47,0l-26.9,23.29-27,23.37L834,244.2l-27,23.38-26.9,23.28-3.34,2.89a4.6,4.6,0,0,0,0,6.47,4.69,4.69,0,0,0,6.46,0Z" transform="translate(-47.73 -54.17)"/><path class="h" d="M825.88,314.54l20-15.17L866,284.13,886,269l20-15.16L926,238.55l2.49-1.88a5.1,5.1,0,0,0,2.1-2.73,4.72,4.72,0,0,0-.46-3.53,4.66,4.66,0,0,0-2.74-2.1,4.46,4.46,0,0,0-3.52.46l-20,15.17-20.09,15.24-20,15.17-20,15.17-20.08,15.24-2.49,1.89a5,5,0,0,0-2.1,2.73,4.66,4.66,0,0,0,.46,3.52,4.59,4.59,0,0,0,2.73,2.1,4.37,4.37,0,0,0,3.52-.46Z" transform="translate(-47.73 -54.17)"/><path class="h" d="M869.68,348.1q8.18-8.36,16.55-16.47t17-16q8.61-7.91,17.42-15.56T938.47,285q9-7.41,18.23-14.58l2.3-1.78-.93.71Q965,264,972,258.82a5,5,0,0,0,2.1-2.73,4.58,4.58,0,0,0-3.19-5.63,4.51,4.51,0,0,0-3.52.46q-11.16,8.27-22.06,16.88-10.49,8.28-20.71,16.88t-20.26,17.59q-10,9-19.71,18.22t-19,18.74c-.79.8-1.58,1.6-2.36,2.41a4.57,4.57,0,0,0,6.46,6.46Z" transform="translate(-47.73 -54.17)"/><path class="h" d="M929.66,378l19.25-16.69,19.35-16.77,19.25-16.69,19.35-16.78,19.25-16.69,2.45-2.12a4.58,4.58,0,0,0-3.23-7.81,5.11,5.11,0,0,0-3.24,1.34l-19.25,16.69L983.5,319.24l-19.25,16.69L944.9,352.71,925.65,369.4l-2.45,2.12a4.58,4.58,0,0,0,3.23,7.81,5.07,5.07,0,0,0,3.23-1.34Z" transform="translate(-47.73 -54.17)"/><path class="h" d="M301.25,341.36q-14-3.64-27.74-8.07-13.61-4.37-26.94-9.5-7.47-2.87-14.85-6l1,.42q-8.57-3.62-17-7.55a4.54,4.54,0,0,0-3.21-.42,4.24,4.24,0,0,0-2.48,1.91c-1,1.84-.62,4.71,1.49,5.69q16.59,7.75,33.7,14.29,16.88,6.45,34.18,11.7,9.76,3,19.63,5.53a4.16,4.16,0,0,0,2.21-8Z" transform="translate(-47.73 -54.17)"/><path class="h" d="M287.17,392.34l-25.29-13.63-25.29-13.63-14.3-7.7a4.16,4.16,0,1,0-4.2,7.18l25.29,13.63,25.29,13.63,14.3,7.71a4.16,4.16,0,0,0,4.2-7.19Z" transform="translate(-47.73 -54.17)"/><path class="h" d="M276.73,290.72l-33.47-11.05-9.49-3.14a4.19,4.19,0,0,0-5.12,2.91,4.26,4.26,0,0,0,2.91,5.12L265,295.61l9.5,3.13a4.18,4.18,0,0,0,5.11-2.9,4.25,4.25,0,0,0-2.9-5.12Z" transform="translate(-47.73 -54.17)"/><path class="h" d="M535.09,989.49c-2.16,26.59,3.81,53.29,15.58,77.12a170.85,170.85,0,0,0,50.68,60.55,151.61,151.61,0,0,0,72.55,29.6c31.3,3.77,63.15-3.56,91.92-15.66,30.06-12.63,57.6-30.33,84.1-49.16a731.22,731.22,0,0,0,72.92-58.54,491.84,491.84,0,0,0,62.55-69.22,356.84,356.84,0,0,0,45.44-81.36,304.47,304.47,0,0,0,20.58-91.68c1.94-31.06-1.43-62.68-11.2-92.29a227.9,227.9,0,0,0-8.38-21.54c-1-2.25-4.29-2.79-6.26-1.64-2.32,1.36-2.64,4-1.64,6.26,12.22,27.4,18.21,57.33,18.81,87.27a284.07,284.07,0,0,1-13.23,89.85,329.3,329.3,0,0,1-39.13,82c-16.44,25.18-35.84,48.29-57,69.59a638.23,638.23,0,0,1-68.66,59.28c-25,18.81-50.87,36.87-78.55,51.5-27.46,14.52-57.49,25.59-88.78,27a137.48,137.48,0,0,1-74.2-17.88A160.3,160.3,0,0,1,568.28,1079c-13.77-21-22.77-45.41-24.27-70.6a135.05,135.05,0,0,1,.22-18.87c.21-2.46-2.24-4.57-4.57-4.57a4.66,4.66,0,0,0-4.57,4.57Z" transform="translate(-47.73 -54.17)"/><path class="a" d="M390.59,526.22c-5.83,17.48,27.77,56.9,41.53,23.84S399.81,498.57,390.59,526.22Z" transform="translate(-47.73 -54.17)"/><path class="j" d="M649.53,903.18c-10.13,19.29-35.95,27.59,0,41.87s63.23-25.55,72.63-56.32S649.53,903.18,649.53,903.18Z" transform="translate(-47.73 -54.17)"/><path class="h" d="M414.89,1147.71c-87-25.43-164.63-77.22-224.86-144.62C129.62,935.48,86.52,852.17,67.67,763.39,47.79,669.69,56.1,571.24,86.3,480.67a599.33,599.33,0,0,1,154.93-244c72.62-68.94,163-118.09,258.91-145.84A695.35,695.35,0,0,1,798.19,71.38c53.35,8.24,106.33,22.53,154.75,46.76a369,369,0,0,1,119.61,95.55C1133.94,288,1170.2,383.1,1186,477.48c14.68,87.55,11.43,178.63-11.08,264.58-22,84-63.14,163.5-124.43,225.56a428.74,428.74,0,0,1-48.47,42.24c-4.66,3.48-.11,11.42,4.61,7.9,71.46-53.35,124.14-127.33,156.56-210,33-84.29,45.34-176.53,39.35-266.68-6.32-95.2-33-190.77-81.4-273.3-25.51-43.5-57.78-83.47-97.23-115.11-42.39-34-92.13-57.37-144.08-72.65-99.52-29.26-207.07-32.81-309-14.94-100.48,17.62-197.62,57.3-279.81,118A603.86,603.86,0,0,0,104.29,411.37c-41.9,89.1-62.56,188.69-55,287.12C56.34,791.29,89.3,881,142.37,957.36c52.28,75.17,123.7,137.63,207.22,175.75a466.42,466.42,0,0,0,62.87,23.42c5.66,1.65,8.07-7.17,2.43-8.82Z" transform="translate(-47.73 -54.17)"/><path class="h" d="M506.63,1185.35c-18.21,20.62-17.56,50.6-5.87,74.28,13.06,26.43,40,41.82,67.71,49,29.63,7.66,61.42,7.87,91.75,5.34a414.62,414.62,0,0,0,89.52-17.84c59.52-18.69,114.8-49,166.36-83.77,52.59-35.46,101.74-75.74,150-116.78,24.87-21.13,50.65-42.14,69.53-69.08,17.8-25.41,28.36-57.46,22.2-88.52a81.45,81.45,0,0,0-7.53-21.36c-2.69-5.23-10.58-.61-7.9,4.62,13.73,26.74,8.54,59.34-5,85.06-14.8,28-39,49.62-62.66,70-46.43,39.85-93.5,79.16-143.47,114.53-49.12,34.77-101.39,66.13-157.83,87.47-54.66,20.67-113.93,32-172.46,26.63-28.1-2.58-58.1-10.36-78.73-30.79-17.08-16.92-26-44.36-17.81-67.58a44.79,44.79,0,0,1,8.67-14.68c3.89-4.39-2.56-10.88-6.46-6.47Z" transform="translate(-47.73 -54.17)"/><path class="h" d="M757.08,1219.54q41.74-15.91,82.15-35.08,40-19,78.34-41.1T992.69,1096q36.69-25.2,71.3-53.25,34.38-27.84,66.47-58.37c2.68-2.54,5.33-5.1,8-7.67,4.23-4.1-2.24-10.56-6.47-6.46q-31.63,30.69-65.64,58.82-33.76,27.93-69.7,53.1-36.11,25.3-74.12,47.71t-77.64,41.73q-39.23,19.13-79.9,35.1-5.16,2-10.32,4a4.71,4.71,0,0,0-3.2,5.62c.61,2.21,3.31,4.08,5.63,3.2Z" transform="translate(-47.73 -54.17)"/><path class="h" d="M691.94,1234.15a26.78,26.78,0,0,0-5.23,8.28,27.18,27.18,0,0,0-1.81,8.31,36.4,36.4,0,0,0,3.53,17.38,41.47,41.47,0,0,0,10.26,14,44.31,44.31,0,0,0,15,8.58c10.16,3.5,21.52,3.3,31.79.4A60.51,60.51,0,0,0,773,1274.63a49.84,49.84,0,0,0,13.77-30.43c1.09-11.61-2-23.48-7.65-33.59a64.73,64.73,0,0,0-24.32-24.69,56,56,0,0,0-34.37-6.86,64.52,64.52,0,0,0-9.54,1.84,69.77,69.77,0,0,0-24.59,12.74,68.31,68.31,0,0,0-21.43,29.1,56.64,56.64,0,0,0-2.43,8.06,4.84,4.84,0,0,0,.46,3.52,4.71,4.71,0,0,0,2.74,2.11c2.31.52,5.06-.7,5.62-3.2a58.78,58.78,0,0,1,3.14-9.85l-.46,1.1a62.75,62.75,0,0,1,8.05-13.72l-.71.92a67.37,67.37,0,0,1,12-12l-.92.71a66.79,66.79,0,0,1,14.63-8.55l-1.09.46a60.7,60.7,0,0,1,15.2-4.19l-1.22.17a54.23,54.23,0,0,1,14.23,0l-1.22-.17a51,51,0,0,1,12.82,3.49l-1.1-.46a55.43,55.43,0,0,1,12.36,7.27l-.92-.72a61.16,61.16,0,0,1,10.77,10.8l-.72-.92a61.38,61.38,0,0,1,8,13.57l-.46-1.09a56.46,56.46,0,0,1,3.92,14.21l-.17-1.22a49.35,49.35,0,0,1,0,13l.17-1.21a45.59,45.59,0,0,1-3.11,11.52l.46-1.09a46.43,46.43,0,0,1-5.95,10.13l.72-.92a52.2,52.2,0,0,1-9.32,9.29l.92-.72a56.73,56.73,0,0,1-12.64,7.38l1.09-.46a56.44,56.44,0,0,1-14.21,3.91l1.22-.17a50.07,50.07,0,0,1-13.34,0l1.22.16a44.54,44.54,0,0,1-11.21-3l1.09.46a38.88,38.88,0,0,1-8.5-4.9l.92.72a37.48,37.48,0,0,1-6.63-6.69l.71.92a38.74,38.74,0,0,1-5-8.6l.46,1.09a34.4,34.4,0,0,1-2.38-8.55l.16,1.21a27.8,27.8,0,0,1,0-7.29l-.16,1.22a22.57,22.57,0,0,1,1.55-5.71l-.46,1.09a21.12,21.12,0,0,1,2.64-4.53l-.71.92a20.26,20.26,0,0,1,1.35-1.59,4.57,4.57,0,0,0-6.47-6.46Z" transform="translate(-47.73 -54.17)"/><path class="h" d="M498.76,1234.11a117.59,117.59,0,0,0,23.5,22,128.37,128.37,0,0,0,28.35,15.09A133.91,133.91,0,0,0,581.9,1279a125,125,0,0,0,31.16.13,118.55,118.55,0,0,0,31.1-8c1.49-.63,3-1.26,4.46-1.93a4.63,4.63,0,0,0,2.1-2.74,4.7,4.7,0,0,0-.46-3.52,4.59,4.59,0,0,0-2.73-2.1,5.22,5.22,0,0,0-3.53.46c-1,.45-2,.89-3,1.31l1.09-.46a112.85,112.85,0,0,1-22.34,6.75c-2.19.42-4.4.78-6.61,1.08l1.22-.16a124.71,124.71,0,0,1-26,.71q-3.66-.29-7.3-.78l1.22.17a129.65,129.65,0,0,1-25.92-6.28c-2.37-.84-4.72-1.76-7-2.73l1.09.46a124.22,124.22,0,0,1-21.58-11.75c-1.9-1.3-3.76-2.66-5.58-4.06l.92.71a113,113,0,0,1-15.16-14.09c-1.31-1.47-2.59-3-3.82-4.51a4.56,4.56,0,0,0-3.23-1.34,4.65,4.65,0,0,0-3.24,1.34,4.55,4.55,0,0,0-1.33,3.23,5.23,5.23,0,0,0,1.33,3.23Z" transform="translate(-47.73 -54.17)"/><path class="h" d="M498.54,1304.78,475.14,1342l-23.4,37.22-13.16,20.94a4.6,4.6,0,0,0,1.64,6.25,4.66,4.66,0,0,0,6.25-1.64l23.4-37.22,23.4-37.21,13.17-20.94a4.61,4.61,0,0,0-1.64-6.25,4.67,4.67,0,0,0-6.26,1.64Z" transform="translate(-47.73 -54.17)"/><path class="h" d="M1141.08,1047.86c4.28-1.16,8.61-2.17,13-3q3.18-.61,6.38-1.13c1.06-.17,2.13-.33,3.2-.48l.8-.11c.7-.09-1.17.15-.1,0l1.77-.23a193.86,193.86,0,0,1,26.28-1.35q6.54.11,13.07.64,3.3.27,6.6.65c1,.11,2,.24,3,.37.27,0,.53.06.8.11-1.18-.19-.39-.06-.09,0l1.76.26a209.76,209.76,0,0,1,25.66,5.44,216.31,216.31,0,0,1,25.14,8.68l.6.25c1,.42-.68-.29,0,0l1.49.64,3.12,1.38q3,1.35,5.87,2.77,6,2.93,11.77,6.21a214.68,214.68,0,0,1,22,14.33l2.58,2-.16-.12.77.59,1.4,1.11c1.72,1.37,3.43,2.78,5.12,4.21q5,4.24,9.69,8.81a195.23,195.23,0,0,1,17.63,19.52c.21.26,1.26,1.59.48.61.3.38.59.77.88,1.15.69.91,1.36,1.81,2,2.73q1.9,2.61,3.72,5.29,3.73,5.49,7.06,11.25c1.08,1.87,2.13,3.77,3.15,5.68a4.6,4.6,0,0,0,6.25,1.64,4.66,4.66,0,0,0,1.64-6.25,193.23,193.23,0,0,0-31.92-43.63,212.68,212.68,0,0,0-42.1-33.49,221.87,221.87,0,0,0-49.5-22.29,214.53,214.53,0,0,0-53.05-9.39,195.24,195.24,0,0,0-53.88,4.82q-3.17.73-6.3,1.59a4.57,4.57,0,0,0,2.43,8.82Z" transform="translate(-47.73 -54.17)"/><path class="h" d="M1350.17,1115.16q.25,1.63.48,3.3l-.17-1.22a166.53,166.53,0,0,1,1,34.5c-.25,3.26-.59,6.5-1,9.74l.16-1.22a172,172,0,0,1-8.34,34.58q-1.68,4.71-3.62,9.32l.47-1.09a167.89,167.89,0,0,1-14.34,26.89q-2.38,3.6-5,7.09a4.57,4.57,0,0,0,5.16,6.71,5.22,5.22,0,0,0,2.73-2.1,163.77,163.77,0,0,0,13.73-22.09,179.51,179.51,0,0,0,10.49-24.76,172.54,172.54,0,0,0,6.4-25.12,177.18,177.18,0,0,0,2.71-26.89,171.38,171.38,0,0,0-1.57-26.88c-.15-1.07-.3-2.13-.46-3.2a4.61,4.61,0,0,0-2.11-2.73,4.57,4.57,0,0,0-6.25,1.64l-.46,1.09a4.59,4.59,0,0,0,0,2.44Z" transform="translate(-47.73 -54.17)"/><path class="h" d="M1416.65,1190.26a179.13,179.13,0,0,1-7,23.23c-.81,2.15-1.67,4.28-2.56,6.39l.46-1.09a184.14,184.14,0,0,1-17.7,32.37q-2.94,4.29-6.14,8.42l.72-.92a181.77,181.77,0,0,1-18.86,20.85q-2.87,2.71-5.85,5.29a4.58,4.58,0,0,0,3.23,7.81,5.09,5.09,0,0,0,3.23-1.34,179,179,0,0,0,16-15.73,191.79,191.79,0,0,0,14.5-18.27,184.77,184.77,0,0,0,11.73-19.15,192.44,192.44,0,0,0,9.7-21.35,178.65,178.65,0,0,0,6.71-21.32q.35-1.38.66-2.76a4.85,4.85,0,0,0-.46-3.52,4.7,4.7,0,0,0-2.73-2.1,4.65,4.65,0,0,0-5.63,3.19Z" transform="translate(-47.73 -54.17)"/><path class="h" d="M442.55,1424.82a162.17,162.17,0,0,0,11,17.18,174.43,174.43,0,0,0,13.66,16.53,166,166,0,0,0,14.83,14,174.42,174.42,0,0,0,17.27,12.72,161.12,161.12,0,0,0,17.79,9.93l2.33,1.09a4.9,4.9,0,0,0,3.52.46,4.64,4.64,0,0,0,2.73-2.1,4.57,4.57,0,0,0,.46-3.52,4.39,4.39,0,0,0-2.1-2.73A163.27,163.27,0,0,1,498.87,1474c-2.25-1.56-4.45-3.19-6.62-4.86l.92.71a166.47,166.47,0,0,1-24-22.68c-2-2.34-4-4.75-5.89-7.2l.71.93a163,163,0,0,1-13.57-20.66,4.62,4.62,0,0,0-6.26-1.64,4.67,4.67,0,0,0-1.64,6.25Z" transform="translate(-47.73 -54.17)"/><path class="g" d="M164.9,461.11S138,544,135.27,618.07s66.32,212.18,66.32,212.18l127.67-64.5S212.09,664,232.23,562.86,164.9,461.11,164.9,461.11Z" transform="translate(-47.73 -54.17)"/><path class="g" d="M256.66,534.83s-9.87,30.38-10.86,57.5,24.3,77.74,24.3,77.74l46.77-23.63S274,609.16,281.32,572.1,256.66,534.83,256.66,534.83Z" transform="translate(-47.73 -54.17)"/><path class="h" d="M397.55,1462.91a169.13,169.13,0,0,0,9.54,45.28,185.15,185.15,0,0,0,20.83,41.07,192.88,192.88,0,0,0,30.19,34.9,186.59,186.59,0,0,0,37.61,26.58A171,171,0,0,0,539,1626.87c1.78.4,3.58.76,5.38,1.09a4.93,4.93,0,0,0,3.53-.46,4.68,4.68,0,0,0,2.1-2.73c.51-2.24-.68-5.16-3.2-5.62a163.83,163.83,0,0,1-20.8-5.31q-5.09-1.68-10.07-3.67l-2.53-1c1.48.61.17.07-.16-.07l-1.47-.64c-1.6-.7-3.18-1.43-4.76-2.18a175.37,175.37,0,0,1-18.73-10.4q-4.53-2.89-8.88-6c-1.48-1.07-2.93-2.17-4.39-3.28,1.25,1,.13.1-.16-.13l-1.08-.85c-.71-.56-1.42-1.14-2.13-1.72a189.48,189.48,0,0,1-15.83-14.55q-3.74-3.87-7.26-7.94-1.8-2.08-3.53-4.21c-.53-.65-1.06-1.3-1.58-2l-.85-1.08-.28-.36c-.48-.62.74,1,0,0a183.6,183.6,0,0,1-22-36.81c-.34-.76-.68-1.53-1-2.3l-.27-.63c-.35-.81.45,1.08.11.26-.21-.49-.41-1-.61-1.48-.66-1.62-1.3-3.24-1.91-4.88q-1.87-5-3.44-10.14a167.88,167.88,0,0,1-4.92-20.85c-.29-1.73-.55-3.46-.78-5.2l.16,1.22q-.66-5-1-10c-.17-2.38-2-4.69-4.57-4.57-2.33.1-4.75,2-4.57,4.57Z" transform="translate(-47.73 -54.17)"/><path class="h" d="M645.51,1386.41q.5,26.8,3.53,53.48,1.53,13.24,3.64,26.41c1.32,8.21,2.46,16.67,5.17,24.56a43,43,0,0,0,11.93,18.52,57.07,57.07,0,0,0,17.13,10.14c13.66,5.42,28.68,6.9,43.14,8.73,34.38,4.37,69.23,7.12,103.91,6.93,32-.18,64.84-4.06,93.57-19.12,27.18-14.24,48.56-37.06,68.42-60q3.66-4.23,7.29-8.48a4.68,4.68,0,0,0,0-6.46c-1.64-1.65-4.85-1.89-6.46,0-19.07,22.24-38.59,45.13-63.52,61A140,140,0,0,1,892,1519.73c-15,3.79-30.46,5.46-45.92,6-16,.61-32.09.11-48.11-.68q-26.16-1.3-52.21-4.14-12.75-1.38-25.46-3.15a191,191,0,0,1-19.57-3.52,69.43,69.43,0,0,1-17.08-6.28,36.12,36.12,0,0,1-12.82-11.09c-4.24-6.28-5.93-13.72-7.3-21.07q-2.37-12.74-4.08-25.58c-2.28-16.85-3.74-33.82-4.44-50.81q-.27-6.53-.39-13c-.11-5.88-9.25-5.9-9.14,0Z" transform="translate(-47.73 -54.17)"/><path class="h" d="M781.85,1170c17.47,1.19,34.74-2.72,50.67-9.76S863,1142.86,876,1131.27c13.17-11.74,24.66-25.09,35.53-39,5.79-7.37,11.42-14.86,17.07-22.35q4.09-5.45,8.24-10.87l2-2.57c.16-.21.65-.85,0,0l.42-.53,1.25-1.62q2.1-2.68,4.21-5.34c11.16-14,23.06-27.55,36.68-39.23q2.58-2.2,5.23-4.32c1.88-1.5,1.68-4.92,0-6.47-2-1.83-4.46-1.59-6.47,0-14,11.2-26.29,24.4-37.64,38.27-11.55,14.1-22.24,28.87-33.34,43.32l-1,1.35c-.51.65,0,0,.09-.12l-.63.81c-.7.9-1.39,1.8-2.1,2.69q-2.09,2.68-4.22,5.34-4.15,5.17-8.45,10.23a253,253,0,0,1-17.85,18.91q-4.63,4.41-9.51,8.55-2.49,2.12-5.06,4.14l-1.29,1c-.18.14-.66.55.15-.12l-.64.5c-.91.69-1.83,1.37-2.75,2a156.58,156.58,0,0,1-21.62,13.39q-2.84,1.44-5.73,2.74l-1.45.63-.58.25c-.75.32.12,0,.22-.09a30.88,30.88,0,0,1-3.22,1.29,113.47,113.47,0,0,1-11.63,3.78q-3,.8-6.09,1.41c-1,.19-2,.37-2.92.54l-1.39.22-.93.14c-.3,0-1.32.15,0,0a117,117,0,0,1-12.4.81q-3.12,0-6.22-.22a4.59,4.59,0,0,0-4.57,4.57,4.68,4.68,0,0,0,4.57,4.57Z" transform="translate(-47.73 -54.17)"/><path class="h" d="M505.21,1178.81q13.6,7.76,27.7,14.65,14.46,7.05,29.36,13.16,14.44,5.94,29.24,11,7.43,2.51,14.92,4.78,3.78,1.14,7.58,2.22a67.73,67.73,0,0,0,6.71,1.8,23.39,23.39,0,0,0,6.08.36,21.9,21.9,0,0,0,5.89-1.16,13.41,13.41,0,0,0,5.37-3.27,8.56,8.56,0,0,0,2.45-6.18,10.84,10.84,0,0,0-1.08-4.06,4.56,4.56,0,0,0-2.74-2.1,4.57,4.57,0,0,0-5.62,3.19l-.16,1.22a4.6,4.6,0,0,0,.62,2.31l.06.12-.46-1.09a5.12,5.12,0,0,1,.37,1.34l-.16-1.22a4.87,4.87,0,0,1,0,1l.16-1.22a4.07,4.07,0,0,1-.28,1l.46-1.09a4.81,4.81,0,0,1-.56.92l.72-.93a7,7,0,0,1-1.07,1l.92-.71a10,10,0,0,1-2,1.14l1.09-.46a16.61,16.61,0,0,1-4.11,1.08l1.22-.16a20.27,20.27,0,0,1-5.22,0l1.22.17a38.27,38.27,0,0,1-5.17-1.28q-3.24-.9-6.46-1.85c-4.25-1.25-8.5-2.57-12.72-3.94q-12.6-4.1-25-8.87-7-2.7-13.87-5.61l1.09.46q-20.85-8.79-40.81-19.5-5.61-3-11.14-6.17a4.57,4.57,0,0,0-4.61,7.9Z" transform="translate(-47.73 -54.17)"/><path class="h" d="M1204.83,927a184.41,184.41,0,0,1,25.39-8.57q6.52-1.67,13.15-2.83c1.1-.19,2.21-.37,3.32-.54l1.38-.21.83-.12.55-.07-.38,0c2.21-.28,4.43-.53,6.66-.73a141.86,141.86,0,0,1,26.55.1c1,.1,2,.21,3,.33l.82.11c1,.12-1.13-.16-.13,0l1.9.28c2.17.33,4.33.73,6.48,1.18a116.31,116.31,0,0,1,12.68,3.42c2.09.7,4.15,1.45,6.19,2.27l1.27.52c.93.38-1-.43-.08,0l.76.32c1.1.48,2.19,1,3.26,1.49a93.08,93.08,0,0,1,10.21,5.66q2.3,1.48,4.5,3.09c.38.27.75.55,1.12.83l.56.43c-1.16-.86-.44-.34-.19-.15.73.57,1.45,1.16,2.17,1.76a93.6,93.6,0,0,1,8.16,7.65q1.93,2,3.74,4.17c.61.71,1.2,1.43,1.78,2.16.27.33.53.67.8,1s-.74-1-.22-.28l.57.74a99.46,99.46,0,0,1,6.18,9.31,96.91,96.91,0,0,1,5,9.9l.27.64c.36.82-.44-1.07-.1-.25l.48,1.18c.35.88.69,1.78,1,2.68q.95,2.58,1.72,5.22a84.37,84.37,0,0,1,2.41,10.64c.07.45.13.9.2,1.35s.09.87-.07-.55c0,.23,0,.45.08.68.12,1,.22,1.94.3,2.92q.24,2.68.27,5.4c0,1.8,0,3.6-.13,5.4,0,.82-.11,1.64-.19,2.46,0,.45-.09.9-.14,1.35,0,.22-.06.44-.08.67-.16,1.2.13-.91,0-.1a69.84,69.84,0,0,1-2.34,10.5c-.53,1.72-1.14,3.42-1.8,5.09a4.57,4.57,0,0,0,.46,3.52,4.57,4.57,0,0,0,6.25,1.64,5.25,5.25,0,0,0,2.1-2.73c5.72-14.38,6.26-30.37,2.87-45.37a98.93,98.93,0,0,0-21.12-41.47,97.78,97.78,0,0,0-39.42-28.16c-16.78-6.78-35.21-9.3-53.24-8.55a173.49,173.49,0,0,0-54.08,11.32q-3.12,1.19-6.19,2.48a5,5,0,0,0-2.74,2.1,4.7,4.7,0,0,0-.46,3.52,4.65,4.65,0,0,0,2.1,2.73,4.39,4.39,0,0,0,3.53.46Z" transform="translate(-47.73 -54.17)"/><path class="h" d="M313.66,467a164.73,164.73,0,0,1,23.39-13.66c2.32-1.11,4.67-2.16,7-3.17l-1.1.46a166,166,0,0,1,22.21-7.57c2.16-.57,4.34-1.09,6.53-1.58a4.6,4.6,0,0,0,3.2-5.62,4.68,4.68,0,0,0-5.63-3.19A164.06,164.06,0,0,0,345,440.05a172.83,172.83,0,0,0-23.83,11.36q-6.21,3.58-12.09,7.7a4.93,4.93,0,0,0-2.1,2.73,4.73,4.73,0,0,0,.46,3.53,4.66,4.66,0,0,0,2.74,2.1,4.56,4.56,0,0,0,3.52-.46Z" transform="translate(-47.73 -54.17)"/></svg>