<svg width="106" height="157" viewBox="0 0 106 157" fill="none" xmlns="http://www.w3.org/2000/svg">
<path d="M16 123.5L6.5 149.5L8 152.5L13.5 154L20.5 151.5L28 135L28.5 132L16 123.5Z" fill="#A6A08A"/>
<path fill-rule="evenodd" clip-rule="evenodd" d="M61 5.5L102.5 57L47.5 147.5L26.5 130.5L16 122.5L53 30.5L61 5.5ZM64 33C66.2091 33 68 31.2091 68 29C68 26.7909 66.2091 25 64 25C61.7909 25 60 26.7909 60 29C60 31.2091 61.7909 33 64 33Z" fill="#D9D9D9"/>
<path d="M6.2373 150.378C8.9041 142.02 11.9431 133.738 15.1463 125.5M16.0001 123.5C21.181 110.245 26.3704 97.9107 31.4823 84.73C37.8467 68.3199 45.5183 52.4312 51.4801 35.8641C52.153 33.9942 52.7628 32.103 53.4007 30.2212C53.5765 29.7024 53.8696 29.1646 53.9352 28.6174C54.433 24.4697 56.0089 20.3057 57.1824 16.3218C57.9692 13.6508 58.7901 10.9775 59.4198 8.26326C59.5925 7.5187 59.665 6.77981 59.994 6.08529C60.1401 5.77676 60.3101 5.43736 60.3504 5.0953C60.372 4.91142 60.434 5.02457 60.5583 5.1745C61.5112 6.32457 62.3944 7.55414 63.3005 8.73846C70.0663 17.5817 76.7132 26.4973 83.7735 35.1117C88.9278 41.4007 94.29 47.5003 99.6133 53.6443C100.44 54.5988 101.192 55.6878 102.049 56.5945C102.419 56.9867 102.039 57.4736 101.831 57.8815C100.517 60.4612 98.9673 62.9253 97.465 65.3955C93.2734 72.288 89.183 79.2301 85.1298 86.2051C78.7779 97.1358 71.9446 107.636 64.9439 118.152C61.6608 123.084 58.9675 128.298 55.9449 133.378C53.166 138.049 49.8447 142.404 47.2924 147.208C47.2005 147.381 47.0481 147.848 46.8271 147.673C45.5404 146.658 44.3393 145.536 43.0454 144.525C39.7606 141.959 36.477 139.354 33.393 136.546C32.4169 135.657 31.4358 134.777 30.5022 133.843C30.0924 133.433 29.6224 132.749 29.0766 132.507C28.7505 132.362 28.3401 132.069 28.156 131.774C27.1849 130.221 24.5828 130.062 23.2852 128.765C22.2571 128.153 18.1305 124.729 16.0001 123.5ZM16.0001 123.5C15.8455 123.896 15.3002 125.104 15.1463 125.5M15.1463 125.5C17.0001 126.5 22.5001 130.5 24.0001 131" stroke="black" stroke-linecap="round" stroke-linejoin="round"/>
<path d="M6 149.079C6.48625 150.338 6.90806 152.194 8.35617 152.643C10.1328 153.194 12.0866 153.649 13.9595 153.633C15.3139 153.621 16.7728 153.135 18.0779 152.782C18.756 152.598 19.7245 152.434 20.2558 151.93C20.6664 151.541 20.7785 150.983 20.9686 150.465C21.4678 149.106 21.6834 147.742 22.3051 146.406C23.7231 143.36 25.2304 140.368 26.6611 137.328C27.068 136.463 27.4418 135.597 27.8292 134.744C28.2953 133.719 28.2747 132.918 28.2747 131.794" stroke="black" stroke-linecap="round" stroke-linejoin="round"/>
<path d="M26.5001 130.5C24.0001 130.5 23.7026 130.45 22.5001 134.5C21.3934 138.228 15.9659 149.037 13.6626 152.108" stroke="black" stroke-linecap="round" stroke-linejoin="round"/>
<path d="M10.6332 148.545C10.1824 147.625 9.78758 146.929 10.2768 145.951C10.4515 145.602 10.664 145.534 10.9896 145.733C11.5595 146.081 11.9627 147.032 11.1678 147.297" stroke="black" stroke-linecap="round" stroke-linejoin="round"/>
<path d="M14.8008 141.348C14.0629 141.78 13.6109 142.165 13.0584 141.348C12.7479 140.888 12.6272 139.522 13.2861 139.229C14.0335 138.897 16.2084 140.7 14.8008 141.169" stroke="black" stroke-linecap="round" stroke-linejoin="round"/>
<path d="M16.761 134.794C15.7605 133.916 15.5906 133.187 16.1373 131.973C16.4176 131.35 16.9445 131.165 17.4837 131.596C17.8597 131.897 18.7931 132.467 18.5034 133.111C18.2728 133.623 17.4281 133.423 17.1174 133.19" stroke="black" stroke-linecap="round" stroke-linejoin="round"/>
<path d="M44.3125 143.377C48.2428 133.211 52.1179 123.004 57.0735 113.291C62.705 102.253 67.7656 90.9797 72.8638 79.6908C76.8655 70.8299 81.8701 62.4763 85.694 53.5254C86.9842 50.5054 88.1365 47.4522 89.6342 44.5264C90.0426 43.7286 90.3782 42.6043 91.0004 41.9822" stroke="black" stroke-linecap="round" stroke-linejoin="round"/>
<path d="M69 28.4604C67.5307 26.0652 65.2764 22.832 62.084 23.0068C60.5414 23.0913 59.7297 25.331 59.2408 26.4153C58.0771 28.9961 61.3897 32.4174 63.6401 32.9103C65.6556 33.3518 65.9048 32.0649 67.4631 31.1872C69.1345 30.2458 67.8342 28.4242 67.0981 27.4568C64.6611 24.254 60.7008 26.7785 60.7008 30.1646" stroke="black" stroke-linecap="round" stroke-linejoin="round"/>
</svg>
