<svg width="115" height="243" viewBox="0 0 115 243" fill="none" xmlns="http://www.w3.org/2000/svg">
<path d="M44 235L17.5 238C13.5 237.5 6 232 6 227L23 221L28.5 217L32.5 210.5L33 206L38.5 199.5L42.5 196.5L45.5 198L47 203L45.5 208V211.5L49 214H56H60L69 211L80 206L84 203L86.5 202.5L89.5 204L93 202H96L97.5 204V208L98.5 210L96 215L90.5 220L77 227.5L44 235Z" fill="#ECE5CC"/>
<path d="M73.5 136L48 155L57.5 168.5L67.5 188.5L93.5 195.5L102 171.5L109 144.5L93.5 123.5L73.5 136Z" fill="#FBF19B"/>
<path d="M16 123.5L6.5 149.5L8 152.5L13.5 154L20.5 151.5L28 135L28.5 132L16 123.5Z" fill="#A6A08A"/>
<path fill-rule="evenodd" clip-rule="evenodd" d="M61 5.5L102.5 57L47.5 147.5L26.5 130.5L16 122.5L53 30.5L61 5.5ZM64 33C66.2091 33 68 31.2091 68 29C68 26.7909 66.2091 25 64 25C61.7909 25 60 26.7909 60 29C60 31.2091 61.7909 33 64 33Z" fill="#D9D9D9"/>
<path d="M66.409 185.788C62.4991 176.456 57.1647 167.745 51.2721 159.543C50.3284 158.23 49.3285 156.946 48.1833 155.801C47.4781 155.096 49.291 153.969 49.7178 153.534C53.5907 149.59 57.8884 146.503 62.4886 143.456C69.3185 138.932 75.9169 134.014 83.0705 130.002C86.2332 128.228 89.5874 126.714 92.5249 124.567C92.8844 124.304 93.296 124.044 93.5743 123.686C93.8842 123.287 94.1022 124.05 94.2772 124.349C95.9243 127.167 97.6468 129.942 99.5934 132.566C101.823 135.571 104.237 138.472 106.632 141.347C107.307 142.157 107.925 143.155 108.642 143.911C108.953 144.24 108.921 144.061 108.78 144.624C108.204 146.93 107.864 149.292 107.296 151.604C105.679 158.182 104.023 164.738 101.88 171.166C100.024 176.736 97.8599 182.215 96.0294 187.788C95.0673 190.717 94.5747 190.83 93.8515 193.826C93.4573 195.459 93.6676 195.61 92.2675 195.084C89.817 194.161 87.0828 193.744 84.5258 193.232C81.5672 192.641 78.7036 192.054 75.7941 191.242C73.6622 190.648 71.0268 190.213 69.0721 189.114C68.5963 188.846 67.6459 188.507 67.3891 188.045C66.6981 186.801 65.8739 185.637 65.518 184.213" stroke="black" stroke-linecap="round" stroke-linejoin="round"/>
<path d="M67.6565 187.748C68.6326 185.113 70.4149 183.03 72.052 180.779C74.5165 177.39 77.0566 174.178 80.0809 171.265C81.5999 169.802 83.2574 168.495 84.7734 167.028C86.5397 165.318 88.1785 163.482 89.8817 161.711C92.2747 159.224 94.8476 156.917 97.2176 154.405C98.1314 153.437 99.0187 152.456 99.9103 151.475C100.22 151.134 99.9713 150.849 99.9202 150.416C99.8107 149.484 99.6229 147.358 100.623 146.802C101.687 146.211 102.449 147.062 103.474 147.119C104.179 147.158 104.93 145.664 105.514 145.08C106.126 144.468 107.037 144.09 107.751 143.555" stroke="black" stroke-linecap="round" stroke-linejoin="round"/>
<path d="M85.2981 188.996C84.2101 188.093 83.7245 187.126 84.6249 185.828C84.8787 185.462 85.7095 184.376 86.2782 184.818C87.2378 185.564 89.3478 186.55 88.1493 187.748" stroke="black" stroke-linecap="round" stroke-linejoin="round"/>
<path d="M88.3273 136.605C87.8302 136.215 86.3667 134.745 85.6544 135.101C84.785 135.535 84.1618 136.25 83.8724 137.18C83.3966 138.707 83.7013 139.466 85.3079 140.08C86.8788 140.681 87.8231 140.844 89.3965 140.169" stroke="black" stroke-linecap="round" stroke-linejoin="round"/>
<path d="M83.3378 151.039C82.8513 150.235 81.0636 147.433 79.7738 148.723C78.8364 149.66 79.2092 151.737 80.3084 152.287" stroke="black" stroke-linecap="round" stroke-linejoin="round"/>
<path d="M92.248 164.939C90.0911 164.097 87.9197 165.346 87.0406 167.434C86.4285 168.887 88.5633 170.349 89.5354 170.998C90.3018 171.508 90.8822 171.433 91.7134 171.71" stroke="black" stroke-linecap="round" stroke-linejoin="round"/>
<path d="M69.6165 170.641C69.3342 169.022 69.1789 167.612 70.4085 166.364C70.9953 165.769 71.8701 165.082 72.735 164.949C73.5796 164.819 74.1748 165.566 74.6259 166.157C75.5663 167.388 76.171 168.441 75.6753 169.928" stroke="black" stroke-linecap="round" stroke-linejoin="round"/>
<path d="M55.3609 158.345C55.2272 157.326 54.8768 155.919 55.5391 154.999C55.7811 154.663 57.1017 155.384 57.3904 155.583C58.1512 156.11 59.0381 157.714 57.6775 158.167" stroke="black" stroke-linecap="round" stroke-linejoin="round"/>
<path d="M6.2373 150.378C8.9041 142.02 11.9431 133.738 15.1463 125.5M16.0001 123.5C21.181 110.245 26.3704 97.9107 31.4823 84.73C37.8467 68.3199 45.5183 52.4312 51.4801 35.8641C52.153 33.9942 52.7628 32.103 53.4007 30.2212C53.5765 29.7024 53.8696 29.1646 53.9352 28.6174C54.433 24.4697 56.0089 20.3057 57.1824 16.3218C57.9692 13.6508 58.7901 10.9775 59.4198 8.26326C59.5925 7.5187 59.665 6.77981 59.994 6.08529C60.1401 5.77676 60.3101 5.43736 60.3504 5.0953C60.372 4.91142 60.434 5.02457 60.5583 5.1745C61.5112 6.32457 62.3944 7.55414 63.3005 8.73846C70.0663 17.5817 76.7132 26.4973 83.7735 35.1117C88.9278 41.4007 94.29 47.5003 99.6133 53.6443C100.44 54.5988 101.192 55.6878 102.049 56.5945C102.419 56.9867 102.039 57.4736 101.831 57.8815C100.517 60.4612 98.9673 62.9253 97.465 65.3955C93.2734 72.288 89.183 79.2301 85.1298 86.2051C78.7779 97.1358 71.9446 107.636 64.9439 118.152C61.6608 123.084 58.9675 128.298 55.9449 133.378C53.166 138.049 49.8447 142.404 47.2924 147.208C47.2005 147.381 47.0481 147.848 46.8271 147.673C45.5404 146.658 44.3393 145.536 43.0454 144.525C39.7606 141.959 36.477 139.354 33.393 136.546C32.4169 135.657 31.4358 134.777 30.5022 133.843C30.0924 133.433 29.6224 132.749 29.0766 132.507C28.7505 132.362 28.3401 132.069 28.156 131.774C27.1849 130.221 24.5828 130.062 23.2852 128.765C22.2571 128.153 18.1305 124.729 16.0001 123.5ZM16.0001 123.5C15.8455 123.896 15.3002 125.104 15.1463 125.5M15.1463 125.5C17.0001 126.5 22.5001 130.5 24.0001 131" stroke="black" stroke-linecap="round" stroke-linejoin="round"/>
<path d="M6 149.079C6.48625 150.338 6.90806 152.194 8.35617 152.643C10.1328 153.194 12.0866 153.649 13.9595 153.633C15.3139 153.621 16.7728 153.135 18.0779 152.782C18.756 152.598 19.7245 152.434 20.2558 151.93C20.6664 151.541 20.7785 150.983 20.9686 150.465C21.4678 149.106 21.6834 147.742 22.3051 146.406C23.7231 143.36 25.2304 140.368 26.6611 137.328C27.068 136.463 27.4418 135.597 27.8292 134.744C28.2953 133.719 28.2747 132.918 28.2747 131.794" stroke="black" stroke-linecap="round" stroke-linejoin="round"/>
<path d="M26.5001 130.5C24.0001 130.5 23.7026 130.45 22.5001 134.5C21.3934 138.228 15.9659 149.037 13.6626 152.108" stroke="black" stroke-linecap="round" stroke-linejoin="round"/>
<path d="M10.6332 148.545C10.1824 147.625 9.78758 146.929 10.2768 145.951C10.4515 145.602 10.664 145.534 10.9896 145.733C11.5595 146.081 11.9627 147.032 11.1678 147.297" stroke="black" stroke-linecap="round" stroke-linejoin="round"/>
<path d="M14.8008 141.348C14.0629 141.78 13.6109 142.165 13.0584 141.348C12.7479 140.888 12.6272 139.522 13.2861 139.229C14.0335 138.897 16.2084 140.7 14.8008 141.169" stroke="black" stroke-linecap="round" stroke-linejoin="round"/>
<path d="M16.761 134.794C15.7605 133.916 15.5906 133.187 16.1373 131.973C16.4176 131.35 16.9445 131.165 17.4837 131.596C17.8597 131.897 18.7931 132.467 18.5034 133.111C18.2728 133.623 17.4281 133.423 17.1174 133.19" stroke="black" stroke-linecap="round" stroke-linejoin="round"/>
<path d="M44.3125 143.377C48.2428 133.211 52.1179 123.004 57.0735 113.291C62.705 102.253 67.7656 90.9797 72.8638 79.6908C76.8655 70.8299 81.8701 62.4763 85.694 53.5254C86.9842 50.5054 88.1365 47.4522 89.6342 44.5264C90.0426 43.7286 90.3782 42.6043 91.0004 41.9822" stroke="black" stroke-linecap="round" stroke-linejoin="round"/>
<path d="M69 28.4604C67.5307 26.0652 65.2764 22.832 62.084 23.0068C60.5414 23.0913 59.7297 25.331 59.2408 26.4153C58.0771 28.9961 61.3897 32.4174 63.6401 32.9103C65.6556 33.3518 65.9048 32.0649 67.4631 31.1872C69.1345 30.2458 67.8342 28.4242 67.0981 27.4568C64.6611 24.254 60.7008 26.7785 60.7008 30.1646" stroke="black" stroke-linecap="round" stroke-linejoin="round"/>
<path d="M6.17822 226.595C8.24096 226.251 10.1109 225.347 12.0588 224.615C15.5078 223.32 19.1894 222.435 22.5229 220.863C26.1443 219.156 29.4167 216.688 31.2744 213.082C31.6651 212.324 32.5515 211.016 32.5515 210.102C32.5515 208.744 32.4501 207.55 33.1356 206.32C34.6296 203.64 36.9076 201.153 39.026 198.945C40.1645 197.758 41.2903 196.836 42.9761 196.836C45.5456 196.836 46.68 200.724 46.9658 202.796C47.0828 203.644 46.7967 204.917 46.5896 205.746C46.434 206.368 46.1727 207.221 45.7382 207.706C45.3473 208.143 45.5045 209.257 45.2432 209.845C44.6976 211.072 47.1648 213.258 48.1339 213.587C49.7707 214.143 51.7019 214.121 53.4106 214.121C56.4446 214.121 57.0259 214.822 60 214.121C62.7122 213.482 65.753 211.978 68.5 211.5C71 210.102 72.3184 209.482 74.5 208.5C76.5175 207.592 78.693 206.927 80.5 205.657C81.4492 204.99 83.8859 203.156 85 202.796C86.7224 202.239 89.7372 203.302 90.0996 205.657C90.3426 207.237 89.0379 208.6 88.0602 209.577C85.3053 212.332 81.5446 213.909 78.1702 215.765C76.3649 216.758 74.8946 217.66 72.8243 218.081C70.724 218.509 68.8196 220.002 66.5873 220.002" stroke="black" stroke-linecap="round" stroke-linejoin="round"/>
<path d="M89.5 204C90.5769 202.923 94.4521 201.324 96.3463 202.222C97.9619 202.987 97.728 205.983 97.1977 207.261C95.3242 211.774 91 214.5 86.5 217C83.3902 219.874 79.0302 221.001 74.4777 222.477C72.6361 223.074 70.7638 223.534 68.8645 223.903C68.6529 223.944 68.0154 224.031 68.2309 224.031" stroke="black" stroke-linecap="round" stroke-linejoin="round"/>
<path d="M97.4154 207.706C100.028 209.363 97.5732 212.499 96.2374 214.25C93.3384 218.051 89.4403 220.336 85.4168 222.833C82.6815 224.531 79.8777 226.179 76.8633 227.338C74.3646 228.299 71.6619 228.739 69.082 229.447C60.2631 231.864 51.4254 233.798 42.3721 235.139C37.2054 235.904 32.0053 236.352 26.8194 236.941C23.6928 237.296 20.7372 238 17.5828 238" stroke="black" stroke-linecap="round" stroke-linejoin="round"/>
</svg>
